<svg width="86" height="19" viewBox="0 0 86 19" fill="none" xmlns="http://www.w3.org/2000/svg">
<path d="M2.36 18.144C1.896 18.144 1.52 18 1.232 17.712C0.96 17.424 0.824 17.048 0.824 16.584V2.544C0.824 2.08 0.952 1.72 1.208 1.464C1.48 1.208 1.848 1.08 2.312 1.08H10.736C11.712 1.08 12.2 1.496 12.2 2.328C12.2 3.144 11.712 3.552 10.736 3.552H3.872V8.16H10.256C11.232 8.16 11.72 8.576 11.72 9.408C11.72 10.224 11.232 10.632 10.256 10.632H3.872V16.584C3.872 17.048 3.736 17.424 3.464 17.712C3.192 18 2.824 18.144 2.36 18.144ZM23.2074 14.784C23.4794 14.784 23.6954 14.888 23.8554 15.096C24.0314 15.304 24.1194 15.584 24.1194 15.936C24.1194 16.432 23.8234 16.848 23.2314 17.184C22.6874 17.488 22.0714 17.736 21.3834 17.928C20.6954 18.104 20.0394 18.192 19.4154 18.192C17.5274 18.192 16.0314 17.648 14.9274 16.56C13.8234 15.472 13.2714 13.984 13.2714 12.096C13.2714 10.896 13.5114 9.832 13.9914 8.904C14.4714 7.976 15.1434 7.256 16.0074 6.744C16.8874 6.232 17.8794 5.976 18.9834 5.976C20.0394 5.976 20.9594 6.208 21.7434 6.672C22.5274 7.136 23.1354 7.792 23.5674 8.64C23.9994 9.488 24.2154 10.488 24.2154 11.64C24.2154 12.328 23.9114 12.672 23.3034 12.672H16.2234C16.3194 13.776 16.6314 14.592 17.1594 15.12C17.6874 15.632 18.4554 15.888 19.4634 15.888C19.9754 15.888 20.4234 15.824 20.8074 15.696C21.2074 15.568 21.6554 15.392 22.1514 15.168C22.6314 14.912 22.9834 14.784 23.2074 14.784ZM19.0554 8.088C18.2394 8.088 17.5834 8.344 17.0874 8.856C16.6074 9.368 16.3194 10.104 16.2234 11.064H21.6474C21.6154 10.088 21.3754 9.352 20.9274 8.856C20.4794 8.344 19.8554 8.088 19.0554 8.088ZM35.9574 14.784C36.2294 14.784 36.4454 14.888 36.6054 15.096C36.7814 15.304 36.8694 15.584 36.8694 15.936C36.8694 16.432 36.5734 16.848 35.9814 17.184C35.4374 17.488 34.8214 17.736 34.1334 17.928C33.4454 18.104 32.7894 18.192 32.1654 18.192C30.2774 18.192 28.7814 17.648 27.6774 16.56C26.5734 15.472 26.0214 13.984 26.0214 12.096C26.0214 10.896 26.2614 9.832 26.7414 8.904C27.2214 7.976 27.8934 7.256 28.7574 6.744C29.6374 6.232 30.6294 5.976 31.7334 5.976C32.7894 5.976 33.7094 6.208 34.4934 6.672C35.2774 7.136 35.8854 7.792 36.3174 8.64C36.7494 9.488 36.9654 10.488 36.9654 11.64C36.9654 12.328 36.6614 12.672 36.0534 12.672H28.9734C29.0694 13.776 29.3814 14.592 29.9094 15.12C30.4374 15.632 31.2054 15.888 32.2134 15.888C32.7254 15.888 33.1734 15.824 33.5574 15.696C33.9574 15.568 34.4054 15.392 34.9014 15.168C35.3814 14.912 35.7334 14.784 35.9574 14.784ZM31.8054 8.088C30.9894 8.088 30.3334 8.344 29.8374 8.856C29.3574 9.368 29.0694 10.104 28.9734 11.064H34.3974C34.3654 10.088 34.1254 9.352 33.6774 8.856C33.2294 8.344 32.6054 8.088 31.8054 8.088ZM49.2114 0.959999C49.6594 0.959999 50.0274 1.088 50.3154 1.344C50.6034 1.6 50.7474 1.936 50.7474 2.352V16.704C50.7474 17.136 50.6114 17.48 50.3394 17.736C50.0674 17.992 49.7074 18.12 49.2594 18.12C48.8114 18.12 48.4514 17.992 48.1794 17.736C47.9074 17.48 47.7714 17.136 47.7714 16.704V16.104C47.4194 16.76 46.9074 17.272 46.2354 17.64C45.5794 18.008 44.8274 18.192 43.9794 18.192C42.9714 18.192 42.0674 17.936 41.2674 17.424C40.4834 16.912 39.8674 16.192 39.4194 15.264C38.9874 14.32 38.7714 13.24 38.7714 12.024C38.7714 10.808 38.9874 9.744 39.4194 8.832C39.8674 7.92 40.4834 7.216 41.2674 6.72C42.0514 6.224 42.9554 5.976 43.9794 5.976C44.8274 5.976 45.5794 6.152 46.2354 6.504C46.8914 6.856 47.3954 7.352 47.7474 7.992V2.304C47.7474 1.904 47.8754 1.584 48.1314 1.344C48.4034 1.088 48.7634 0.959999 49.2114 0.959999ZM44.7714 15.864C45.7314 15.864 46.4674 15.536 46.9794 14.88C47.5074 14.224 47.7714 13.288 47.7714 12.072C47.7714 10.856 47.5074 9.928 46.9794 9.288C46.4674 8.632 45.7394 8.304 44.7954 8.304C43.8354 8.304 43.0914 8.624 42.5634 9.264C42.0354 9.904 41.7714 10.824 41.7714 12.024C41.7714 13.24 42.0354 14.184 42.5634 14.856C43.0914 15.528 43.8274 15.864 44.7714 15.864Z" fill="black"/>
<path d="M67.7774 5.976C69.0574 5.976 70.0334 6.36 70.7054 7.128C71.3934 7.88 71.7374 9.104 71.7374 10.8V16.704C71.7374 17.168 71.5934 17.528 71.3054 17.784C71.0334 18.024 70.6734 18.144 70.2254 18.144C69.7934 18.144 69.4334 18.024 69.1454 17.784C68.8734 17.528 68.7374 17.168 68.7374 16.704V10.8C68.7374 9.92 68.5774 9.296 68.2574 8.928C67.9534 8.544 67.4814 8.352 66.8414 8.352C66.0574 8.352 65.4334 8.624 64.9694 9.168C64.5054 9.696 64.2734 10.424 64.2734 11.352V16.704C64.2734 17.168 64.1294 17.528 63.8414 17.784C63.5694 18.024 63.2174 18.144 62.7854 18.144C62.3534 18.144 61.9934 18.024 61.7054 17.784C61.4174 17.528 61.2734 17.168 61.2734 16.704V10.8C61.2734 9.92 61.1134 9.296 60.7934 8.928C60.4894 8.544 60.0174 8.352 59.3774 8.352C58.5934 8.352 57.9694 8.624 57.5054 9.168C57.0574 9.696 56.8334 10.424 56.8334 11.352V16.704C56.8334 17.168 56.6894 17.528 56.4014 17.784C56.1134 18.024 55.7534 18.144 55.3214 18.144C54.8894 18.144 54.5294 18.024 54.2414 17.784C53.9694 17.528 53.8334 17.168 53.8334 16.704V7.416C53.8334 6.968 53.9774 6.624 54.2654 6.384C54.5534 6.144 54.9134 6.024 55.3454 6.024C55.7614 6.024 56.0974 6.144 56.3534 6.384C56.6254 6.608 56.7614 6.936 56.7614 7.368V7.944C57.1294 7.304 57.6174 6.816 58.2254 6.48C58.8494 6.144 59.5614 5.976 60.3614 5.976C62.1214 5.976 63.2974 6.712 63.8894 8.184C64.2414 7.512 64.7614 6.976 65.4494 6.576C66.1374 6.176 66.9134 5.976 67.7774 5.976ZM84.0746 14.784C84.3466 14.784 84.5626 14.888 84.7226 15.096C84.8986 15.304 84.9866 15.584 84.9866 15.936C84.9866 16.432 84.6906 16.848 84.0986 17.184C83.5546 17.488 82.9386 17.736 82.2506 17.928C81.5626 18.104 80.9066 18.192 80.2826 18.192C78.3946 18.192 76.8986 17.648 75.7946 16.56C74.6906 15.472 74.1386 13.984 74.1386 12.096C74.1386 10.896 74.3786 9.832 74.8586 8.904C75.3386 7.976 76.0106 7.256 76.8746 6.744C77.7546 6.232 78.7466 5.976 79.8506 5.976C80.9066 5.976 81.8266 6.208 82.6106 6.672C83.3946 7.136 84.0026 7.792 84.4346 8.64C84.8666 9.488 85.0826 10.488 85.0826 11.64C85.0826 12.328 84.7786 12.672 84.1706 12.672H77.0906C77.1866 13.776 77.4986 14.592 78.0266 15.12C78.5546 15.632 79.3226 15.888 80.3306 15.888C80.8426 15.888 81.2906 15.824 81.6746 15.696C82.0746 15.568 82.5226 15.392 83.0186 15.168C83.4986 14.912 83.8506 14.784 84.0746 14.784ZM79.9226 8.088C79.1066 8.088 78.4506 8.344 77.9546 8.856C77.4746 9.368 77.1866 10.104 77.0906 11.064H82.5146C82.4826 10.088 82.2426 9.352 81.7946 8.856C81.3466 8.344 80.7226 8.088 79.9226 8.088Z" fill="#F7B602"/>
</svg>
